<?xml version="1.0" standalone="no"?>
<!DOCTYPE svg PUBLIC "-//W3C//DTD SVG 20010904//EN"
 "http://www.w3.org/TR/2001/REC-SVG-20010904/DTD/svg10.dtd">
<svg version="1.0" xmlns="http://www.w3.org/2000/svg"
 width="512.000000pt" height="512.000000pt" viewBox="0 0 512.000000 512.000000"
 preserveAspectRatio="xMidYMid meet">
<metadata>
Created by potrace 1.14, written by Peter Selinger 2001-2017
</metadata>
<g transform="translate(0.000000,512.000000) scale(0.100000,-0.100000)"
fill="#E63946" stroke="none">
<path d="M2397 4984 c-2 -3 -29 -7 -58 -9 -132 -9 -274 -37 -322 -61 -38 -20
-65 -49 -79 -84 -8 -22 -37 -189 -51 -305 -18 -138 -17 -136 -64 -156 l-44
-19 -152 117 c-184 141 -205 154 -261 159 -59 6 -111 -18 -216 -97 -130 -98
-353 -312 -463 -444 -27 -33 -53 -62 -56 -65 -3 -3 -24 -30 -47 -60 -74 -102
-94 -169 -71 -239 10 -28 122 -189 148 -211 3 -3 25 -32 50 -65 24 -33 50 -66
57 -73 15 -17 15 -19 -5 -69 -20 -48 -24 -50 -103 -58 -71 -7 -125 -13 -175
-19 -22 -3 -65 -8 -95 -12 -95 -11 -148 -41 -175 -98 -18 -38 -41 -142 -49
-216 -4 -30 -11 -95 -16 -145 -5 -49 -7 -169 -4 -265 6 -208 5 -200 15 -200 5
0 6 -6 3 -14 -6 -17 22 -201 38 -241 18 -48 47 -84 80 -101 39 -20 46 -22 183
-39 11 -1 20 -3 20 -4 0 -1 16 -4 35 -6 19 -2 49 -6 65 -9 17 -2 59 -8 93 -11
l64 -8 19 -45 c19 -44 19 -47 2 -69 -10 -12 -72 -93 -137 -179 l-119 -157 -1
-62 c0 -50 6 -71 32 -116 17 -30 40 -66 52 -79 11 -14 37 -45 58 -70 194 -232
474 -490 612 -563 34 -18 60 -24 97 -23 61 2 85 16 284 169 l141 108 44 -17
c25 -9 46 -20 48 -23 2 -3 7 -35 11 -71 3 -36 8 -72 10 -80 2 -8 6 -46 10 -85
18 -201 42 -259 123 -293 43 -18 137 -38 222 -48 19 -2 55 -6 80 -10 60 -8
411 -15 422 -8 5 3 39 7 76 10 99 6 271 42 313 66 57 32 76 77 99 234 12 77
24 159 26 184 3 25 7 54 9 65 2 11 4 24 4 28 1 4 21 17 46 28 l44 20 153 -118
c84 -65 172 -127 196 -140 53 -27 108 -25 173 6 108 51 423 339 586 535 115
137 124 149 135 176 5 14 15 36 21 50 29 70 13 120 -77 239 -39 51 -77 104
-84 117 -7 13 -17 24 -21 24 -4 0 -25 25 -46 56 l-38 55 21 44 c22 47 10 42
162 60 8 1 40 5 70 10 30 4 69 9 85 11 17 1 30 3 30 4 0 2 9 4 20 5 93 12 138
32 166 78 19 32 38 89 44 136 2 14 4 26 5 26 6 0 22 141 24 198 0 20 4 37 7
37 9 0 4 324 -5 405 -4 33 -7 72 -6 87 0 15 -4 30 -10 33 -6 4 -8 10 -5 15 9
14 -23 156 -44 198 -36 70 -81 89 -251 107 -36 4 -69 10 -74 12 -4 3 -31 7
-60 10 -28 2 -60 5 -71 8 -11 2 -30 4 -42 4 -16 1 -28 13 -43 43 -24 51 -25
59 -2 79 9 9 26 29 37 44 11 16 31 43 45 61 14 17 34 44 44 59 11 14 28 36 39
48 26 30 79 114 79 124 0 4 3 13 7 18 14 18 4 92 -18 137 -67 139 -397 483
-657 686 -63 49 -164 83 -202 66 -10 -4 -24 -8 -32 -9 -8 -1 -93 -61 -189
-134 l-173 -132 -33 15 c-18 9 -38 16 -44 16 -6 0 -11 6 -12 13 -1 21 -8 80
-14 112 -3 17 -7 50 -10 75 -3 25 -8 54 -10 66 -3 12 -7 39 -10 60 -12 90 -18
111 -38 147 -35 63 -128 93 -372 123 -64 8 -421 15 -428 8z m397 -1664 c85
-27 213 -86 236 -110 3 -3 21 -17 40 -32 52 -39 100 -86 100 -97 0 -5 3 -11 8
-13 10 -4 72 -84 72 -93 0 -4 10 -21 22 -38 13 -18 22 -33 21 -34 -1 -2 5 -20
14 -40 8 -21 17 -45 18 -53 2 -8 4 -15 5 -15 1 0 3 -8 6 -17 2 -10 6 -26 8
-35 3 -10 5 -18 6 -18 15 0 14 -301 -1 -335 -1 -3 -3 -9 -4 -15 -2 -5 -4 -12
-5 -15 -1 -3 -3 -12 -5 -20 -9 -48 -64 -164 -107 -226 -154 -225 -402 -350
-674 -339 -124 5 -118 4 -184 22 -104 28 -244 98 -300 149 -66 60 -118 119
-154 174 -44 68 -92 169 -100 211 -3 13 -5 24 -6 24 -2 0 -10 36 -16 75 -8 48
-8 228 0 265 3 17 8 40 10 53 18 87 91 237 153 311 106 128 235 212 400 260
98 29 95 28 238 26 101 -2 145 -8 199 -25z"/>
</g>
</svg>
